<?xml version="1.0" encoding="UTF-8" standalone="no"?>
<!-- Created with Inkscape (http://www.inkscape.org/) -->

<svg
   xmlns:dc="http://purl.org/dc/elements/1.1/"
   xmlns:cc="http://creativecommons.org/ns#"
   xmlns:rdf="http://www.w3.org/1999/02/22-rdf-syntax-ns#"
   xmlns:svg="http://www.w3.org/2000/svg"
   xmlns="http://www.w3.org/2000/svg"
   xmlns:sodipodi="http://sodipodi.sourceforge.net/DTD/sodipodi-0.dtd"
   xmlns:inkscape="http://www.inkscape.org/namespaces/inkscape"
   width="1200"
   height="800"
   viewBox="0 0 317.5 211.66667"
   version="1.1"
   id="svg8"
   inkscape:version="0.92.3 (2405546, 2018-03-11)"
   sodipodi:docname="fondo.svg">
  <defs
     id="defs2">
    <inkscape:path-effect
       effect="bounding_box"
       id="path-effect1046"
       is_visible="true"
       linkedpath=""
       visualbounds="false" />
    <inkscape:path-effect
       effect="spiro"
       id="path-effect48"
       is_visible="true" />
    <inkscape:path-effect
       effect="spiro"
       id="path-effect38"
       is_visible="true" />
    <inkscape:path-effect
       effect="spiro"
       id="path-effect34"
       is_visible="true" />
    <inkscape:path-effect
       effect="spiro"
       id="path-effect30"
       is_visible="true" />
    <inkscape:path-effect
       effect="spiro"
       id="path-effect22"
       is_visible="true" />
    <filter
       inkscape:label="3D Marble"
       inkscape:menu="Materials"
       inkscape:menu-tooltip="3D warped marble texture"
       height="1.5"
       y="-0.25"
       width="1.5"
       x="-0.25"
       style="color-interpolation-filters:sRGB;"
       id="filter904">
      <feGaussianBlur
         stdDeviation="4"
         result="result8"
         id="feGaussianBlur876" />
      <feTurbulence
         seed="50"
         result="result7"
         type="turbulence"
         numOctaves="7"
         baseFrequency="0.01 0.01"
         id="feTurbulence878" />
      <feColorMatrix
         result="result5"
         values="1 0 0 0 0 0 1 0 0 0 0 0 1 0 0 0 0 0 1.4 0 "
         id="feColorMatrix880" />
      <feComposite
         result="result6"
         in="result5"
         operator="in"
         in2="result8"
         id="feComposite882" />
      <feDisplacementMap
         in="result5"
         xChannelSelector="A"
         yChannelSelector="A"
         scale="100"
         result="result4"
         in2="result6"
         id="feDisplacementMap884" />
      <feFlood
         flood-opacity="1"
         flood-color="rgb(224,224,224)"
         id="feFlood886" />
      <feComposite
         result="result2"
         operator="atop"
         in2="result4"
         id="feComposite888" />
      <feComposite
         in="result2"
         operator="atop"
         in2="SourceGraphic"
         result="result9"
         id="feComposite890" />
      <feBlend
         result="fbSourceGraphic"
         mode="darken"
         in2="result9"
         id="feBlend892" />
      <feGaussianBlur
         stdDeviation="5"
         in="fbSourceGraphic"
         result="result0"
         id="feGaussianBlur894" />
      <feSpecularLighting
         in="result0"
         result="result1"
         lighting-color="rgb(255,255,255)"
         surfaceScale="8"
         specularConstant="0.8"
         specularExponent="30"
         id="feSpecularLighting898">
        <feDistantLight
           elevation="55"
           azimuth="235"
           id="feDistantLight896" />
      </feSpecularLighting>
      <feComposite
         in2="fbSourceGraphic"
         in="result1"
         result="result2"
         operator="in"
         id="feComposite900" />
      <feComposite
         in="fbSourceGraphic"
         result="result4"
         operator="arithmetic"
         k2="1"
         k3="1"
         in2="result2"
         id="feComposite902" />
    </filter>
    <filter
       inkscape:label="Glowing Bubble"
       inkscape:menu="Ridges"
       inkscape:menu-tooltip="Bubble effect with refraction and glow"
       x="-0.25"
       y="-0.25"
       width="1.5"
       height="1.5"
       style="color-interpolation-filters:sRGB;"
       id="filter1044">
      <feGaussianBlur
         stdDeviation="1"
         result="result1"
         id="feGaussianBlur1020" />
      <feGaussianBlur
         stdDeviation="10"
         result="result6"
         in="result1"
         id="feGaussianBlur1022" />
      <feComposite
         operator="atop"
         in="result6"
         in2="result1"
         result="result8"
         id="feComposite1024" />
      <feComposite
         operator="xor"
         result="fbSourceGraphic"
         in="result6"
         in2="result8"
         id="feComposite1026" />
      <feColorMatrix
         result="fbSourceGraphicAlpha"
         in="fbSourceGraphic"
         values="0 0 0 -1 0 0 0 0 -1 0 0 0 0 -1 0 0 0 0 2 0 "
         id="feColorMatrix1028" />
      <feGaussianBlur
         result="result0"
         in="fbSourceGraphicAlpha"
         stdDeviation="1"
         id="feGaussianBlur1030" />
      <feSpecularLighting
         specularExponent="35"
         specularConstant="1.5"
         surfaceScale="-2"
         lighting-color="rgb(255,255,255)"
         result="result1"
         in="result0"
         id="feSpecularLighting1034">
        <feDistantLight
           azimuth="230"
           elevation="60"
           id="feDistantLight1032" />
      </feSpecularLighting>
      <feComposite
         operator="in"
         result="result2"
         in="result1"
         in2="fbSourceGraphicAlpha"
         id="feComposite1036" />
      <feComposite
         k3="1"
         k2="1"
         operator="arithmetic"
         result="result4"
         in="fbSourceGraphic"
         in2="result2"
         id="feComposite1038" />
      <feComposite
         operator="atop"
         in="result9"
         in2="result4"
         result="result91"
         id="feComposite1040" />
      <feBlend
         mode="multiply"
         in2="result91"
         id="feBlend1042" />
    </filter>
    <filter
       inkscape:label="Glowing Bubble"
       inkscape:menu="Ridges"
       inkscape:menu-tooltip="Bubble effect with refraction and glow"
       x="-0.25"
       y="-0.25"
       width="1.5"
       height="1.5"
       style="color-interpolation-filters:sRGB;"
       id="filter4786">
      <feGaussianBlur
         stdDeviation="1"
         result="result1"
         id="feGaussianBlur4762" />
      <feGaussianBlur
         stdDeviation="10"
         result="result6"
         in="result1"
         id="feGaussianBlur4764" />
      <feComposite
         operator="atop"
         in="result6"
         in2="result1"
         result="result8"
         id="feComposite4766" />
      <feComposite
         operator="xor"
         result="fbSourceGraphic"
         in="result6"
         in2="result8"
         id="feComposite4768" />
      <feColorMatrix
         result="fbSourceGraphicAlpha"
         in="fbSourceGraphic"
         values="0 0 0 -1 0 0 0 0 -1 0 0 0 0 -1 0 0 0 0 2 0 "
         id="feColorMatrix4770" />
      <feGaussianBlur
         result="result0"
         in="fbSourceGraphicAlpha"
         stdDeviation="1"
         id="feGaussianBlur4772" />
      <feSpecularLighting
         specularExponent="35"
         specularConstant="1.5"
         surfaceScale="-2"
         lighting-color="rgb(255,255,255)"
         result="result1"
         in="result0"
         id="feSpecularLighting4776">
        <feDistantLight
           azimuth="230"
           elevation="60"
           id="feDistantLight4774" />
      </feSpecularLighting>
      <feComposite
         operator="in"
         result="result2"
         in="result1"
         in2="fbSourceGraphicAlpha"
         id="feComposite4778" />
      <feComposite
         k3="1"
         k2="1"
         operator="arithmetic"
         result="result4"
         in="fbSourceGraphic"
         in2="result2"
         id="feComposite4780" />
      <feComposite
         operator="atop"
         in="result9"
         in2="result4"
         result="result91"
         id="feComposite4782" />
      <feBlend
         mode="multiply"
         in2="result91"
         id="feBlend4784" />
    </filter>
    <filter
       inkscape:collect="always"
       style="color-interpolation-filters:sRGB"
       id="filter5062"
       x="-0.15031578"
       width="1.3006316"
       y="-0.15031578"
       height="1.3006316">
      <feGaussianBlur
         inkscape:collect="always"
         stdDeviation="1.1194972"
         id="feGaussianBlur5064" />
    </filter>
  </defs>
  <sodipodi:namedview
     id="base"
     pagecolor="#ffffff"
     bordercolor="#666666"
     borderopacity="1.0"
     inkscape:pageopacity="0.0"
     inkscape:pageshadow="2"
     inkscape:zoom="0.56249204"
     inkscape:cx="599.3021"
     inkscape:cy="390.39228"
     inkscape:document-units="mm"
     inkscape:current-layer="layer1"
     showgrid="false"
     units="px"
     inkscape:snap-nodes="false"
     inkscape:window-width="1366"
     inkscape:window-height="719"
     inkscape:window-x="0"
     inkscape:window-y="25"
     inkscape:window-maximized="1" />
  <metadata
     id="metadata5">
    <rdf:RDF>
      <cc:Work
         rdf:about="">
        <dc:format>image/svg+xml</dc:format>
        <dc:type
           rdf:resource="http://purl.org/dc/dcmitype/StillImage" />
        <dc:title></dc:title>
      </cc:Work>
    </rdf:RDF>
  </metadata>
  <g
     inkscape:label="Capa 1"
     inkscape:groupmode="layer"
     id="layer1"
     transform="translate(0,-85.333329)">
    <rect
       style="fill:#000000;fill-opacity:1;stroke:#000000;stroke-width:0.26499999;stroke-linecap:round;stroke-miterlimit:4;stroke-dasharray:none;stroke-opacity:1;paint-order:stroke markers fill"
       id="rect862"
       width="317.03409"
       height="212.14003"
       x="0.47037703"
       y="85.33033" />
    <circle
       style="fill:#d42aff;fill-opacity:1;stroke:#000000;stroke-width:0.90139186;stroke-linecap:round;stroke-miterlimit:4;stroke-dasharray:none;stroke-opacity:1;paint-order:stroke markers fill;filter:url(#filter4786)"
       id="path4760"
       cx="97.132851"
       cy="203.57138"
       r="55.151104" />
    <path
       inkscape:connector-curvature="0"
       style="fill:none;stroke:#000000;stroke-width:0.66500002;stroke-linecap:butt;stroke-linejoin:miter;stroke-miterlimit:4;stroke-dasharray:none;stroke-opacity:1;filter:url(#filter1044)"
       d="m 0.64674596,187.40215 c 2.58495304,-1.43476 5.51218234,-2.24788 8.46678644,-2.35189 4.0598206,-0.14292 8.0915156,1.04359 11.6879156,2.93263 3.5964,1.88904 6.791358,4.46134 9.779239,7.21363 5.975761,5.50459 11.352023,11.88996 18.514894,15.72448 7.469589,3.99872 16.632311,4.81518 24.606024,1.95085 7.973712,-2.86433 14.585682,-9.43304 17.257531,-17.4733 1.947951,-5.86187 1.793447,-12.44717 -0.684815,-18.10528 -2.478262,-5.65811 -7.314394,-10.29605 -13.164437,-12.27923 -5.850042,-1.98318 -12.631356,-1.19388 -17.72343,2.3028 -2.546038,1.74834 -4.656751,4.13312 -6.050599,6.88923 -1.393847,2.75612 -2.064292,5.87917 -1.88839,8.96268 0.254788,4.46637 2.325224,8.79777 5.622092,11.82168 3.296867,3.02391 7.779154,4.71174 12.252234,4.64152 2.971472,-0.0466 5.960679,-0.86525 8.412028,-2.54534 2.45135,-1.68009 4.328755,-4.25028 4.955422,-7.1553 0.313333,-1.45251 0.315218,-2.97478 -0.02486,-4.42126 -0.340076,-1.44648 -1.02427,-2.81454 -2.001125,-3.93424 -0.976855,-1.11969 -2.246795,-1.98661 -3.65546,-2.45949 -1.408666,-0.47288 -2.95319,-0.5468 -4.393369,-0.18096 -1.674205,0.42529 -3.142575,1.4091 -4.713378,2.12772 -0.785402,0.3593 -1.607648,0.65543 -2.463316,0.77285 -0.855669,0.11743 -1.749827,0.0489 -2.541414,-0.29661 -1.090478,-0.47591 -1.921817,-1.46613 -2.29668,-2.59534 -0.374863,-1.12921 -0.311993,-2.38115 0.07879,-3.50494 0.390785,-1.1238 1.096475,-2.12312 1.955151,-2.94672 0.858677,-0.8236 1.867947,-1.47797 2.925191,-2.02375 4.784787,-2.47002 10.685024,-2.6621 15.620331,-0.50852 4.935308,2.15359 8.807173,6.60986 10.250405,11.79757"
       id="path20" />
    <path
       inkscape:connector-curvature="0"
       style="fill:none;stroke:#000000;stroke-width:0.66500002;stroke-linecap:butt;stroke-linejoin:miter;stroke-miterlimit:4;stroke-dasharray:none;stroke-opacity:1;filter:url(#filter1044)"
       d="m 13.640934,203.92413 c 3.842419,10.06235 10.85029,18.88938 19.779142,24.91356 8.928851,6.02418 19.737539,9.21775 30.506636,9.0136 10.769097,-0.20415 21.44898,-3.80509 30.143094,-10.16335 8.694114,-6.35827 15.362394,-15.44456 18.820684,-25.64531 2.3332,-6.88215 3.22089,-14.1675 5.17414,-21.16697 1.69961,-6.09057 4.32993,-12.13223 8.93716,-16.46319 2.92083,-2.74569 6.58798,-4.7139 10.51712,-5.50881 3.92915,-0.7949 8.10965,-0.39674 11.76959,1.2388 3.65993,1.63553 6.77013,4.5185 8.57022,8.10036 1.80009,3.58186 2.25252,7.84409 1.12871,11.69209 -0.94652,3.24095 -3.01494,6.16771 -5.83718,8.02099 -2.82223,1.85327 -6.38878,2.5869 -9.68526,1.85693 -1.78436,-0.39513 -3.48765,-1.21384 -4.83751,-2.44589 -1.34987,-1.23205 -2.33231,-2.88568 -2.66106,-4.68346 -0.32874,-1.79778 0.0208,-3.73046 1.04903,-5.24139 1.02819,-1.51092 2.7445,-2.55965 4.56803,-2.68133 1.10115,-0.0735 2.21329,0.18127 3.20535,0.66475 0.99205,0.48347 1.8667,1.19039 2.60217,2.01319 1.47094,1.64561 2.37244,3.71561 3.12965,5.78885 4.88681,13.38002 4.57513,28.58986 -0.8844,41.74658 -5.45952,13.15673 -16.01852,24.12548 -28.97089,30.05353 -12.95237,5.92806 -28.167672,6.74794 -41.672237,2.21666 -13.504565,-4.53128 -25.153555,-14.37267 -31.849705,-26.94515 -6.696151,-12.57248 -8.360621,-27.74344 -4.519924,-41.4604 3.840698,-13.71695 13.151039,-25.82584 25.436415,-33.03523 12.285375,-7.20939 27.409989,-9.43099 41.242291,-6.02904 13.8323,3.40194 26.20953,12.39514 33.69241,24.51588 1.03254,1.6725 1.9751,3.40054 2.82227,5.17415"
       id="path28" />
    <path
       inkscape:connector-curvature="0"
       style="fill:none;stroke:#000000;stroke-width:0.66500002;stroke-linecap:butt;stroke-linejoin:miter;stroke-miterlimit:4;stroke-dasharray:none;stroke-opacity:1;filter:url(#filter1044)"
       d="m 148.4039,224.62072 c -3.07504,-3.60612 -4.61862,-8.47725 -4.18167,-13.19626 0.43695,-4.71901 2.84867,-9.2239 6.53356,-12.2041 3.7376,-3.02283 8.69465,-4.43191 13.48424,-4.02329 4.7896,0.40863 9.37579,2.58979 12.85687,5.9048 3.76032,3.58092 6.17403,8.30381 8.93716,12.70018 4.332,6.89258 9.85831,13.30785 17.10909,17.00922 3.62539,1.85069 7.64542,2.98271 11.7153,3.05075 4.06987,0.068 8.18553,-0.95439 11.62804,-3.12639 3.07147,-1.9379 5.58958,-4.81229 6.86883,-8.21125 1.27925,-3.39896 1.25955,-7.31625 -0.28355,-10.60384 -0.94605,-2.01558 -2.45813,-3.78082 -4.37041,-4.92133 -1.91228,-1.14051 -4.22604,-1.63257 -6.41945,-1.24978 -2.19341,0.38279 -4.2385,1.66456 -5.44205,3.53781 -0.60177,0.93662 -0.99297,2.00974 -1.11957,3.11579 -0.1266,1.10606 0.013,2.2435 0.4179,3.28053 0.50716,1.29892 1.43322,2.43049 2.60618,3.18453 1.17295,0.75404 2.58686,1.12674 3.9791,1.04886 -2.07983,1.06434 -4.47268,1.5075 -6.79573,1.25861 -2.32305,-0.2489 -4.56769,-1.18894 -6.37483,-2.66974 -2.66327,-2.18233 -4.30781,-5.50017 -4.6585,-8.92546 -0.35069,-3.42529 0.54783,-6.92951 2.30662,-9.88962 1.73422,-2.91876 4.29667,-5.33399 7.297,-6.92293 3.00032,-1.58894 6.42855,-2.35083 9.82099,-2.21651 3.39243,0.13432 6.74143,1.16085 9.6444,2.92138 2.90297,1.76053 5.35603,4.24872 7.10475,7.15882 3.61102,6.00921 4.09181,13.40243 7.05566,19.75583 1.32389,2.83792 3.14965,5.45615 5.45745,7.57288 2.30779,2.11673 5.1044,3.72254 8.13575,4.50827 3.03135,0.78573 6.29566,0.73347 9.25663,-0.28588 2.96098,-1.01936 5.59748,-3.02304 7.2543,-5.68037 0.7128,-1.14324 1.24648,-2.40592 1.49458,-3.73013 0.2481,-1.32421 0.205,-2.71106 -0.19772,-3.99671 -0.40273,-1.28565 -1.173,-2.46498 -2.23567,-3.29311 -1.06267,-0.82814 -2.4201,-1.29027 -3.76495,-1.20985 -1.40321,0.0839 -2.71888,0.73702 -3.85007,1.57154 -1.13119,0.83453 -2.11172,1.85252 -3.1539,2.79586 -1.04219,0.94333 -2.1732,1.8284 -3.48887,2.32342 -0.65783,0.24751 -1.35752,0.39361 -2.06037,0.38906 -0.70284,-0.005 -1.40892,-0.16273 -2.02849,-0.4946 -0.98486,-0.52754 -1.71237,-1.48589 -2.03103,-2.55674 -0.31865,-1.07084 -0.24192,-2.24211 0.13938,-3.29228 0.3813,-1.05018 1.05686,-1.98128 1.88394,-2.7324 0.82709,-0.75112 1.80283,-1.32729 2.82997,-1.76688 2.32425,-0.99472 4.94099,-1.29403 7.42983,-0.84982 2.48883,0.4442 4.84047,1.63026 6.6771,3.36761 1.83663,1.73736 3.1514,4.01952 3.73308,6.47986 0.58168,2.46034 0.42811,5.08966 -0.43606,7.46555"
       id="path36" />
    <path
       sodipodi:type="star"
       style="fill:#d42aff;fill-opacity:1;stroke:#000000;stroke-width:0.66499996;stroke-linecap:round;stroke-miterlimit:4;stroke-dasharray:none;stroke-opacity:1;paint-order:stroke markers fill;filter:url(#filter5062)"
       id="path4888"
       sodipodi:sides="4"
       sodipodi:cx="287.87073"
       sodipodi:cy="112.61219"
       sodipodi:r1="8.9371634"
       sodipodi:r2="1.7143269"
       sodipodi:arg1="1.5707963"
       sodipodi:arg2="2.3561945"
       inkscape:flatsided="false"
       inkscape:rounded="0"
       inkscape:randomized="0"
       d="m 287.87073,121.54935 -1.21221,-7.72495 -7.72496,-1.21221 7.72496,-1.21221 1.21221,-7.72495 1.21221,7.72495 7.72495,1.21221 -7.72495,1.21221 z"
       inkscape:transform-center-x="3.3067135e-06" />
    <g
       id="g3326"
       transform="matrix(0.45778536,0,0,0.45778536,121.22512,197.59364)"
       style="fill:#00d4aa">
      <path
         transform="matrix(0.26458333,0,0,0.26458333,0,85.333329)"
         inkscape:connector-curvature="0"
         id="path3320"
         d="m 1388.4923,420.91472 c -11.534,-17.64315 -17.2682,-43.11274 -17.2682,-76.69993 0,-34.24953 1.9028,-42.01649 13.1496,-53.6744 21.126,-21.89834 47.4674,-36.42227 82.8518,-45.68231 13.1398,-3.43867 19.1702,-3.91626 46.2229,-3.66075 17.1113,0.16161 33.7116,-0.46464 36.8894,-1.39166 3.1778,-0.92703 5.7778,-1.25209 5.7778,-0.72235 0,1.82044 -23.6624,35.25702 -40.0315,56.56723 -27.7156,36.08169 -49.5079,57.42062 -61.7882,60.50279 -3.3257,0.83468 -6.5951,0.1272 -10.6059,-2.29504 -3.1891,-1.92593 -11.2287,-6.83766 -17.8659,-10.91496 -18.3167,-11.25206 -35.085,-20.01952 -37.0415,-19.36737 -0.9636,0.32123 2.0916,5.39286 6.7894,11.2703 21.9338,27.44132 31.6529,40.17077 31.6529,41.45682 0,0.76959 -4.3234,4.93792 -9.6076,9.26294 -13.0773,10.70357 -19.5747,19.19699 -23.2055,30.33444 l -3.0604,9.38783 z"
         style="fill:#00d4aa;fill-opacity:1;stroke:none;stroke-width:4.46830463;stroke-linecap:round;stroke-miterlimit:4;stroke-dasharray:none;stroke-opacity:1;paint-order:stroke markers fill" />
      <path
         transform="matrix(0.26458333,0,0,0.26458333,0,85.333329)"
         inkscape:connector-curvature="0"
         id="path3322"
         d="m 1282.4197,383.8864 c 4.0168,-7.70641 5.1122,-24.85095 2.6955,-42.19054 l -1.2636,-9.06658 29.5789,-9.60035 c 16.2684,-5.28019 29.7271,-10.40036 29.9083,-11.37815 0.4279,-2.30951 -15.9409,-4.00959 -40.9353,-4.25156 -26.8172,-0.25961 -26.8717,-0.31926 -30.7412,-33.60329 -1.6603,-14.28051 1.9512,-82.35847 5.3889,-101.58474 0.9499,-5.31299 1.7592,-12.51309 1.7984,-16.00023 l 0.071,-6.34025 2.6595,4.90258 c 3.098,5.71108 23.5273,23.02206 31.8044,26.94981 9.944,4.71874 26.8333,24.90049 37.2792,44.5464 9.7997,18.43072 16.961,46.07616 16.9913,65.59289 0.011,6.83102 -1.3671,10.95487 -6.5333,19.55583 -22.2825,37.09699 -57.131,71.94634 -78.384,78.38588 l -4.0407,1.2243 z"
         style="fill:#00d4aa;fill-opacity:1;stroke:none;stroke-width:4.46830463;stroke-linecap:round;stroke-miterlimit:4;stroke-dasharray:none;stroke-opacity:1;paint-order:stroke markers fill" />
    </g>
  </g>
</svg>
